<?xml version="1.0" standalone="no"?>
<!DOCTYPE svg PUBLIC "-//W3C//DTD SVG 20010904//EN"
 "http://www.w3.org/TR/2001/REC-SVG-20010904/DTD/svg10.dtd">
<svg version="1.0" xmlns="http://www.w3.org/2000/svg"
 width="700.000000pt" height="700.000000pt" viewBox="0 0 700.000000 700.000000"
 preserveAspectRatio="xMidYMid meet">
<metadata>
Created by potrace 1.14, written by Peter Selinger 2001-2017
</metadata>
<g transform="translate(0.000000,700.000000) scale(0.100000,-0.100000)"
fill="#000000" stroke="none">
<path d="M3465 6986 c-11 -7 -40 -24 -65 -38 -25 -14 -405 -234 -845 -488
-769 -444 -1100 -635 -1175 -678 -19 -11 -127 -73 -240 -139 -113 -65 -212
-122 -220 -126 -8 -4 -24 -13 -35 -20 -11 -7 -106 -61 -210 -121 -105 -60
-195 -115 -200 -122 -7 -8 -11 -568 -10 -1758 0 -1541 2 -1748 15 -1756 26
-17 1085 -630 1305 -755 22 -13 150 -87 285 -165 135 -78 265 -154 290 -167
25 -14 97 -56 160 -93 63 -37 237 -137 385 -222 149 -86 337 -194 418 -241 82
-48 157 -89 167 -92 13 -4 114 49 317 166 164 95 399 231 523 302 124 71 425
245 670 387 245 141 522 301 615 355 94 54 238 137 320 185 83 48 170 98 195
112 133 74 395 230 400 238 5 7 6 3438 1 3491 -1 13 -222 148 -416 255 -11 6
-209 120 -439 254 -231 133 -433 250 -450 260 -17 9 -177 102 -356 205 -179
103 -397 229 -485 280 -88 51 -306 177 -485 280 -412 238 -388 225 -403 225
-7 0 -21 -6 -32 -14z m68 -82 c32 -16 385 -220 872 -502 138 -80 264 -153 282
-163 71 -40 1053 -607 1403 -810 l375 -217 0 -1712 0 -1712 -155 -90 c-85 -50
-243 -141 -350 -202 -107 -62 -325 -188 -485 -280 -406 -235 -864 -499 -1395
-806 -250 -144 -471 -272 -490 -284 -88 -56 -79 -57 -256 45 -474 274 -1375
795 -1411 815 -23 14 -183 106 -355 205 -172 100 -329 191 -348 201 -116 66
-584 336 -630 364 l-55 33 0 1711 0 1712 320 185 c303 175 1015 586 1080 623
17 10 127 73 245 142 118 69 424 246 680 393 256 148 501 290 545 316 44 26
84 48 88 48 4 1 22 -6 40 -15z"/>
<path d="M3463 6568 c-21 -11 -90 -51 -153 -88 -63 -37 -135 -78 -160 -92 -25
-14 -96 -55 -158 -92 -62 -36 -132 -77 -155 -90 -23 -13 -130 -74 -237 -136
-207 -120 -695 -401 -745 -430 -52 -29 -745 -430 -845 -488 -52 -31 -114 -66
-137 -79 -22 -13 -43 -29 -45 -36 -7 -21 -3 -3071 4 -3083 4 -5 25 -19 47 -30
23 -10 41 -22 41 -26 0 -5 4 -8 10 -8 5 0 47 -22 92 -49 77 -45 314 -182 383
-221 17 -9 104 -60 195 -112 368 -214 1164 -673 1230 -710 118 -67 627 -362
644 -374 24 -17 4 -27 516 269 228 132 503 290 610 352 107 62 323 187 480
277 157 91 431 249 610 353 474 273 480 276 481 283 1 4 2 697 3 1541 1 1017
-2 1538 -9 1546 -5 7 -219 133 -475 280 -256 148 -661 381 -900 520 -623 360
-1166 674 -1232 711 l-57 32 -38 -20z m177 -141 c47 -27 105 -60 130 -74 25
-14 171 -98 325 -187 154 -90 474 -274 710 -411 237 -136 540 -312 675 -390
135 -78 329 -190 433 -249 103 -60 188 -114 188 -120 5 -35 3 -2066 -1 -2066
-3 1 -133 224 -290 497 -403 703 -370 649 -400 633 -10 -5 -90 -136 -180 -292
-90 -156 -164 -284 -165 -286 -3 -4 -45 67 -247 418 -75 129 -204 353 -287
497 -83 144 -154 268 -157 276 -3 8 22 41 63 83 235 237 234 604 -2 839 -123
123 -261 177 -439 171 -201 -6 -374 -104 -482 -271 -29 -46 -38 -53 -75 -59
-24 -4 -58 -16 -76 -27 l-32 -20 -43 40 c-84 81 -222 105 -326 56 -65 -30 -69
-30 -77 -6 -10 34 -98 113 -153 139 -147 67 -326 12 -417 -129 -34 -54 -37
-56 -68 -50 -151 33 -307 -94 -309 -250 0 -36 5 -56 15 -64 11 -8 222 -11 741
-11 l725 1 16 -73 c25 -110 77 -204 159 -288 l71 -72 -26 -43 c-14 -24 -113
-195 -219 -379 -106 -184 -219 -379 -250 -433 l-57 -98 -29 48 c-16 26 -32 55
-36 63 -4 8 -110 193 -236 410 -194 334 -232 395 -253 398 -22 2 -50 -43 -328
-525 -167 -291 -322 -559 -343 -596 l-40 -69 -71 124 c-197 344 -222 383 -246
383 -26 0 1 44 -431 -705 -106 -184 -196 -338 -199 -342 -4 -4 -6 463 -6 1039
l0 1046 64 38 c34 22 64 39 66 39 4 0 199 113 225 130 8 5 29 17 45 26 17 9
190 109 385 222 195 113 531 306 745 430 215 124 464 268 555 320 553 320 521
304 549 285 14 -9 64 -39 111 -66z m478 -737 c146 -30 291 -137 359 -266 113
-212 73 -469 -97 -628 l-51 -48 -141 243 c-77 134 -147 249 -155 256 -8 6 -21
9 -29 6 -11 -4 -183 -291 -272 -455 -21 -38 -29 -45 -43 -38 -31 17 -111 114
-139 170 -33 66 -63 172 -50 180 5 3 59 5 120 4 137 -1 145 4 137 86 -9 98
-65 178 -154 220 l-43 20 40 54 c40 52 117 119 170 147 96 50 241 70 348 49z
m-1412 -139 c61 -31 94 -66 128 -133 17 -34 36 -63 42 -65 6 -2 28 10 50 28
54 43 98 59 158 59 62 0 122 -26 161 -70 17 -18 40 -44 53 -57 l23 -25 32 26
c79 64 151 75 232 36 48 -23 93 -84 101 -137 l4 -28 -840 0 c-799 0 -840 1
-840 18 0 25 27 87 48 110 46 51 139 74 202 50 52 -21 72 -11 92 44 49 137
228 210 354 144z m1479 -696 c92 -159 169 -293 171 -297 3 -4 -28 -44 -68 -90
-39 -46 -73 -85 -76 -88 -2 -3 -22 15 -44 40 -108 118 -141 150 -154 150 -9 0
-34 -21 -57 -47 -23 -26 -63 -69 -88 -97 l-47 -50 -33 40 c-19 21 -53 60 -77
86 l-44 47 173 300 c96 165 174 299 175 298 1 -1 77 -132 169 -292z m-1545
-447 c41 -72 76 -135 78 -139 2 -5 -7 -19 -20 -32 -13 -13 -48 -52 -78 -87
l-54 -63 -74 79 c-40 44 -77 86 -82 95 -6 11 12 52 67 147 42 73 78 132 82
132 3 0 40 -60 81 -132z m1128 -75 c21 -24 45 -43 55 -43 10 0 41 26 70 57 29
31 68 75 88 96 l35 40 84 -94 c46 -52 93 -95 103 -97 19 -4 33 9 137 127 43
50 56 60 66 49 6 -7 88 -146 181 -308 94 -162 230 -398 302 -524 l132 -228
-124 -217 c-206 -358 -175 -316 -238 -318 -30 -1 -68 -2 -86 -2 -23 -1 -33 -7
-38 -21 -16 -51 -40 -50 794 -52 l776 -3 1 -92 0 -93 -50 0 c-28 -1 -377 -1
-776 -1 -493 0 -729 -4 -737 -11 -18 -14 -16 -47 2 -54 8 -4 363 -7 787 -8
l773 -1 0 -127 1 -128 -31 -1 c-16 0 -409 -1 -873 -1 -723 0 -845 -3 -858 -15
-7 -8 -14 -18 -14 -22 0 -31 33 -32 902 -34 l873 -2 1 -95 c0 -52 -2 -101 -4
-107 -2 -7 -43 -35 -91 -62 l-86 -49 -667 0 c-367 0 -672 -3 -677 -7 -18 -10
-13 -53 7 -59 9 -3 282 -5 605 -4 324 0 590 -2 593 -4 3 -4 -243 -151 -341
-204 -11 -6 -69 -39 -130 -75 l-110 -64 -315 -5 -315 -5 -3 -27 c-2 -16 -2
-29 0 -30 2 -1 113 -5 248 -8 l245 -5 -250 -144 c-533 -308 -752 -435 -815
-471 -36 -21 -163 -95 -282 -164 l-217 -125 -632 365 c-347 200 -649 375 -672
388 -23 13 -91 52 -152 87 l-109 64 244 5 c135 3 246 7 248 8 2 1 2 14 0 30
l-3 27 -315 5 -315 5 -275 159 c-151 88 -286 166 -300 173 l-25 13 25 0 c14 1
286 1 605 1 382 1 584 4 593 11 15 13 16 44 2 53 -6 4 -312 7 -679 7 l-669 0
-88 52 -89 52 -1 94 c0 52 1 100 3 106 3 9 230 12 876 12 811 1 872 2 884 18
8 11 9 23 3 34 -9 16 -65 17 -862 18 -469 0 -864 1 -878 1 l-26 1 1 129 0 129
770 0 c424 0 775 1 782 1 18 1 26 40 13 56 -11 13 -122 15 -789 15 l-777 0 0
93 1 92 776 3 c834 2 810 1 794 51 -6 19 -16 21 -143 23 l-137 3 -92 160 c-51
88 -118 204 -149 257 l-55 96 187 324 c102 178 200 346 216 373 16 28 36 65
45 83 9 17 20 32 24 32 4 0 36 -32 70 -72 113 -128 116 -131 141 -124 13 4 60
49 105 101 l82 95 114 -198 c63 -108 135 -234 161 -279 26 -44 53 -86 61 -93
21 -17 43 0 75 56 15 27 68 119 117 204 50 85 141 243 203 350 61 107 119 206
127 219 l16 25 49 -55 c28 -29 66 -73 86 -96z m1952 -890 c161 -280 301 -523
312 -541 l20 -32 -321 1 -320 1 -154 267 -154 266 20 35 c11 19 32 56 46 81
123 219 247 429 252 429 4 0 138 -228 299 -507z m-4049 181 l136 -236 -149
-259 -150 -259 -274 0 c-151 0 -274 2 -274 5 0 2 37 68 83 147 46 79 154 265
239 413 86 149 167 290 182 315 15 25 34 60 43 78 9 17 19 32 22 32 3 0 67
-106 142 -236z m3528 -525 l129 -224 -260 -3 c-144 -1 -263 0 -266 2 -4 5 227
414 251 444 5 7 11 11 13 9 2 -2 62 -104 133 -228z m-3224 0 c66 -115 121
-214 123 -219 2 -6 -94 -9 -251 -9 l-255 1 25 46 c14 25 39 69 56 96 16 28 37
65 47 81 9 17 34 61 56 98 21 38 45 79 52 93 7 13 16 24 20 24 4 0 61 -95 127
-211z"/>
<path d="M5201 5064 c-42 -16 -118 -80 -138 -118 -10 -19 -12 -19 -49 -1 -119
57 -264 12 -331 -102 -24 -41 -28 -59 -28 -120 0 -41 5 -77 12 -84 17 -17
1247 -17 1268 1 18 15 20 105 3 161 -39 131 -210 206 -337 149 -51 -23 -61
-25 -61 -7 0 18 -78 91 -120 113 -48 24 -163 28 -219 8z m184 -73 c48 -22 83
-58 110 -114 25 -52 46 -57 90 -18 42 37 109 49 168 31 75 -22 138 -111 125
-175 -3 -17 -39 -18 -558 -17 -305 1 -565 1 -577 1 -29 1 -30 39 -3 98 49 108
197 136 289 54 38 -33 57 -27 81 26 12 26 31 59 43 72 32 34 95 61 147 61 25
0 63 -9 85 -19z"/>
<path d="M1495 4780 c-75 -18 -136 -62 -175 -125 -19 -31 -23 -33 -79 -33
-128 0 -220 -92 -221 -220 0 -43 4 -54 19 -60 16 -5 1067 -9 1118 -3 19 2 36
70 29 118 -8 58 -48 132 -89 164 -74 58 -181 72 -261 34 -38 -18 -39 -18 -52
1 -72 99 -186 149 -289 124z m145 -85 c40 -21 81 -66 101 -112 10 -24 25 -43
33 -43 9 0 35 13 58 30 115 80 265 18 284 -117 5 -39 4 -41 -23 -44 -15 -2
-246 -4 -513 -3 l-485 0 1 31 c4 80 103 137 188 108 49 -17 62 -11 77 32 21
64 86 122 154 136 30 6 97 -4 125 -18z"/>
<path d="M3437 3379 c-92 -21 -182 -100 -210 -182 l-14 -42 -275 0 -276 -1
-39 -26 c-69 -45 -75 -70 -71 -296 3 -188 4 -199 26 -230 32 -45 75 -64 146
-66 l61 -2 1 -217 c0 -190 -2 -217 -15 -218 -89 -3 -150 -33 -188 -91 l-28
-41 -3 -256 c-3 -250 -2 -257 20 -301 32 -63 89 -100 165 -107 56 -5 61 -8 78
-40 23 -41 67 -81 114 -100 52 -22 1090 -22 1141 -1 49 21 95 62 114 103 15
30 22 35 54 36 90 2 154 38 190 109 21 42 22 55 22 287 0 260 -4 284 -51 335
-33 34 -64 50 -129 63 l-55 11 -1 212 c-1 209 -1 212 20 213 86 4 110 9 145
32 64 43 71 69 71 281 0 213 -9 245 -77 287 -36 22 -44 23 -307 25 -149 1
-274 2 -277 3 -3 1 -11 19 -18 40 -16 56 -90 134 -152 160 -58 25 -126 33
-182 20z m154 -84 c57 -29 119 -98 119 -132 0 -10 -405 -11 -415 -1 -9 9 12
47 44 81 65 71 172 92 252 52z m-676 -217 c7 -4 10 -91 10 -240 l0 -233 -110
0 c-195 -1 -195 -2 -195 238 0 108 4 186 11 198 6 12 23 26 38 32 29 13 228
16 246 5z m203 -234 l2 -240 -62 1 -63 1 0 234 c-1 129 0 237 1 240 2 3 29 6
61 5 l58 0 3 -241z m685 237 c4 0 7 -107 7 -236 0 -129 -3 -236 -7 -236 -22
-4 -590 -5 -600 -1 -10 3 -13 59 -13 236 0 128 2 235 4 237 4 3 586 4 609 0z
m193 -4 c12 -12 11 -457 -1 -466 -5 -5 -32 -7 -60 -7 l-50 2 -3 239 -2 240 54
0 c30 0 58 -4 62 -8z m342 -6 c36 -20 42 -51 42 -237 0 -172 0 -175 -25 -199
-13 -14 -30 -26 -37 -26 -34 -4 -224 -5 -233 -2 -8 2 -10 83 -9 241 0 130 2
237 3 237 178 0 240 -3 259 -14z m-202 -543 c12 -13 7 -480 -6 -513 -28 -74
-92 -125 -173 -140 l-37 -7 0 136 c0 155 -11 194 -60 225 -55 33 -128 14 -166
-44 -13 -20 -16 -54 -17 -170 l-1 -145 -176 0 -177 0 0 139 c-1 148 -12 193
-54 220 -35 21 -93 21 -129 0 -49 -30 -60 -70 -60 -224 0 -150 3 -146 -71
-124 -53 16 -103 61 -129 115 -21 43 -22 59 -23 283 0 130 2 242 5 247 7 11
1263 12 1274 2z m-908 -364 c21 -15 22 -20 22 -213 l0 -197 -47 0 -48 1 -3
192 c-2 182 -1 194 18 213 24 24 29 24 58 4z m609 -10 c13 -18 19 -393 6 -395
-4 0 -27 -2 -50 -4 l-43 -3 0 196 c0 164 3 198 16 213 18 20 53 17 71 -7z
m-1056 -131 c1 -5 3 -46 4 -93 l2 -86 -84 -1 -83 -1 0 45 c0 85 50 136 138
142 12 0 23 -2 23 -6z m1545 -19 c30 -20 54 -73 54 -122 l0 -40 -82 1 -83 2
-1 85 c-1 51 3 88 10 93 15 10 74 -1 102 -19z m-1307 -196 c54 -10 61 -14 61
-35 0 -16 -6 -23 -19 -23 -25 0 -30 -17 -30 -110 0 -91 4 -106 29 -113 16 -4
20 -14 20 -51 0 -31 6 -52 18 -63 40 -40 87 -73 101 -73 22 0 121 79 122 98 1
9 1 34 1 55 0 21 2 36 5 33 3 -3 14 -1 24 5 17 8 19 22 19 110 0 96 -1 100
-24 109 -16 6 -24 16 -23 30 1 19 7 20 178 20 l177 0 0 -25 c0 -14 -3 -24 -6
-21 -2 3 -13 1 -23 -5 -17 -8 -19 -22 -19 -110 0 -95 1 -100 24 -108 20 -8 23
-16 23 -57 0 -44 3 -50 49 -90 27 -24 56 -43 65 -44 16 0 106 63 121 84 4 6 8
31 8 54 0 35 4 45 19 49 26 7 28 15 29 108 1 97 -3 111 -28 118 -19 5 -29 46
-12 48 81 6 118 19 180 66 l32 24 1 -28 c0 -15 1 -141 1 -279 0 -265 -3 -286
-48 -325 -46 -40 -50 -41 -587 -41 -546 0 -558 1 -604 44 -40 38 -46 77 -45
337 0 135 1 256 1 268 1 22 3 22 50 -13 34 -24 69 -39 110 -46z m-233 -238 l0
-200 -28 0 c-46 0 -96 26 -118 62 -18 29 -20 50 -20 186 l0 152 83 0 84 0 -1
-200z m1594 48 c0 -136 -2 -157 -20 -186 -22 -36 -72 -62 -118 -62 l-29 0 0
200 0 200 84 0 83 0 0 -152z m-1082 22 l3 -45 -96 0 c-103 0 -103 0 -103 60
l-1 30 97 0 97 0 3 -45z m596 25 c6 -33 5 -65 -2 -66 -4 0 -49 -2 -99 -3 l-93
-2 0 46 0 45 95 0 c88 0 96 -1 99 -20z m-644 -175 c-1 -26 -7 -40 -25 -53 -24
-17 -26 -17 -50 0 -17 12 -24 28 -25 49 0 17 2 33 4 35 3 2 25 4 50 5 l46 0 0
-36z m598 3 c2 -23 -3 -36 -23 -51 -25 -20 -28 -20 -51 -5 -18 12 -24 24 -24
53 l0 37 48 -2 c45 -1 47 -3 50 -32z"/>
</g>
</svg>
